<?xml version="1.0" encoding="utf-8" standalone="no"?>
<!DOCTYPE svg PUBLIC "-//W3C//DTD SVG 1.1//EN"
  "http://www.w3.org/Graphics/SVG/1.1/DTD/svg11.dtd">
<!-- Created with matplotlib (http://matplotlib.org/) -->
<svg height="332pt" version="1.1" viewBox="0 0 348 332" width="348pt" xmlns="http://www.w3.org/2000/svg" xmlns:xlink="http://www.w3.org/1999/xlink">
 <defs>
  <style type="text/css">
*{stroke-linecap:butt;stroke-linejoin:round;stroke-miterlimit:100000;}
  </style>
 </defs>
 <g id="figure_1">
  <g id="patch_1">
   <path d="M 0 332.128961 
L 348.48 332.128961 
L 348.48 0 
L 0 0 
L 0 332.128961 
z
" style="fill:none;"/>
  </g>
  <g id="axes_1">
   <g id="patch_2">
    <path d="M 7.2 324.928961 
L 341.28 324.928961 
L 341.28 7.2 
L 7.2 7.2 
L 7.2 324.928961 
z
" style="fill:none;"/>
   </g>
   <g id="line2d_1">
    <path clip-path="url(#pbaf1e266d7)" d="M 252.208633 74.876565 
L 40.638759 200.267312 
" style="fill:none;stroke:#000000;stroke-linecap:square;"/>
   </g>
   <g id="line2d_2">
    <path clip-path="url(#pbaf1e266d7)" d="M 40.638759 200.267312 
L 316.220503 174.478593 
" style="fill:none;stroke:#000000;stroke-linecap:square;"/>
   </g>
   <g id="line2d_3">
    <path clip-path="url(#pbaf1e266d7)" d="M 316.220503 174.478593 
L 154.747842 32.390919 
" style="fill:none;stroke:#000000;stroke-linecap:square;"/>
   </g>
   <g id="line2d_4">
    <path clip-path="url(#pbaf1e266d7)" d="M 154.747842 32.390919 
L 273.210505 306.849757 
" style="fill:none;stroke:#000000;stroke-linecap:square;"/>
   </g>
   <g id="line2d_5">
    <path clip-path="url(#pbaf1e266d7)" d="M 273.210505 306.849757 
L 259.729798 314.839344 
" style="fill:none;stroke:#000000;stroke-linecap:square;"/>
   </g>
   <g id="line2d_6">
    <path clip-path="url(#pbaf1e266d7)" d="M 259.729798 314.839344 
L 34.491404 181.347699 
" style="fill:none;stroke:#000000;stroke-linecap:square;"/>
   </g>
   <g id="line2d_7">
    <path clip-path="url(#pbaf1e266d7)" d="M 34.491404 181.347699 
L 73.217133 91.626446 
" style="fill:none;stroke:#000000;stroke-linecap:square;"/>
   </g>
   <g id="line2d_8">
    <path clip-path="url(#pbaf1e266d7)" d="M 73.217133 91.626446 
L 252.208633 74.876565 
" style="fill:none;stroke:#000000;stroke-linecap:square;"/>
   </g>
   <g id="line2d_9">
    <path clip-path="url(#pbaf1e266d7)" d="M 252.208633 74.876565 
L 291.589965 250.283595 
" style="fill:none;stroke:#000000;stroke-linecap:square;"/>
   </g>
   <g id="line2d_10">
    <path clip-path="url(#pbaf1e266d7)" d="M 291.589965 250.283595 
L 218.226891 314.839344 
" style="fill:none;stroke:#000000;stroke-linecap:square;"/>
   </g>
   <g id="line2d_11">
    <path clip-path="url(#pbaf1e266d7)" d="M 218.226891 314.839344 
L 21.666301 141.876088 
" style="fill:none;stroke:#000000;stroke-linecap:square;"/>
   </g>
   <g id="line2d_12">
    <path clip-path="url(#pbaf1e266d7)" d="M 21.666301 141.876088 
L 25.099082 126.586256 
" style="fill:none;stroke:#000000;stroke-linecap:square;"/>
   </g>
   <g id="line2d_13">
    <path clip-path="url(#pbaf1e266d7)" d="M 25.099082 126.586256 
L 322.731925 154.438499 
" style="fill:none;stroke:#000000;stroke-linecap:square;"/>
   </g>
   <g id="line2d_14">
    <path clip-path="url(#pbaf1e266d7)" d="M 322.731925 154.438499 
L 137.700719 44.776378 
" style="fill:none;stroke:#000000;stroke-linecap:square;"/>
   </g>
   <g id="line2d_15">
    <path clip-path="url(#pbaf1e266d7)" d="M 137.700719 44.776378 
L 198.333633 314.839344 
" style="fill:none;stroke:#000000;stroke-linecap:square;"/>
   </g>
   <g id="line2d_16">
    <path clip-path="url(#pbaf1e266d7)" d="M 198.333633 314.839344 
L 252.208633 74.876565 
" style="fill:none;stroke:#000000;stroke-linecap:square;"/>
   </g>
   <g id="line2d_17">
    <path clip-path="url(#pbaf1e266d7)" d="M 77.865469 314.839344 
L 270.614531 314.839344 
L 330.177267 131.524093 
L 174.24 18.229037 
L 18.302733 131.524093 
L 77.865469 314.839344 
" style="fill:none;stroke:#000000;stroke-linecap:square;stroke-width:2.0;"/>
   </g>
   <g id="line2d_18">
    <path clip-path="url(#pbaf1e266d7)" d="M 74.974233 318.818789 
L 273.505767 318.818789 
L 334.855385 130.00408 
L 174.24 13.310172 
L 13.624615 130.00408 
L 74.974233 318.818789 
" style="fill:none;stroke:#ff0000;stroke-linecap:square;stroke-width:0.1;"/>
   </g>
   <g id="matplotlib.axis_1"/>
   <g id="matplotlib.axis_2"/>
  </g>
 </g>
 <defs>
  <clipPath id="pbaf1e266d7">
   <rect height="317.728960964" width="334.08" x="7.2" y="7.2"/>
  </clipPath>
 </defs>
</svg>
