<?xml version="1.0" encoding="utf-8" standalone="no"?>
<!DOCTYPE svg PUBLIC "-//W3C//DTD SVG 1.1//EN"
  "http://www.w3.org/Graphics/SVG/1.1/DTD/svg11.dtd">
<!-- Created with matplotlib (http://matplotlib.org/) -->
<svg height="113pt" version="1.1" viewBox="0 0 118 113" width="118pt" xmlns="http://www.w3.org/2000/svg" xmlns:xlink="http://www.w3.org/1999/xlink">
 <defs>
  <style type="text/css">
*{stroke-linecap:butt;stroke-linejoin:round;stroke-miterlimit:100000;}
  </style>
 </defs>
 <g id="figure_1">
  <g id="patch_1">
   <path d="M 0 113.00554 
L 118.08 113.00554 
L 118.08 0 
L 0 0 
z
" style="fill:#ffffff;"/>
  </g>
  <g id="axes_1">
   <g id="patch_2">
    <path d="M 7.2 105.80554 
L 110.88 105.80554 
L 110.88 7.2 
L 7.2 7.2 
z
" style="fill:#ffffff;"/>
   </g>
   <g id="line2d_1">
    <path clip-path="url(#p5c9e44b5ed)" d="M 34.842838 28.203072 
L 62.920195 13.441931 
" style="fill:none;stroke:#000000;stroke-linecap:square;stroke-width:0.5;"/>
   </g>
   <g id="line2d_2">
    <path clip-path="url(#p5c9e44b5ed)" d="M 62.920195 13.441931 
L 47.61565 102.674279 
" style="fill:none;stroke:#000000;stroke-linecap:square;stroke-width:0.5;"/>
   </g>
   <g id="line2d_3">
    <path clip-path="url(#p5c9e44b5ed)" d="M 47.61565 102.674279 
L 34.842838 28.203072 
" style="fill:none;stroke:#000000;stroke-linecap:square;stroke-width:0.5;"/>
   </g>
   <g id="line2d_4">
    <path clip-path="url(#p5c9e44b5ed)" d="M 34.842838 28.203072 
L 101.722149 63.363606 
" style="fill:none;stroke:#000000;stroke-linecap:square;stroke-width:0.5;"/>
   </g>
   <g id="line2d_5">
    <path clip-path="url(#p5c9e44b5ed)" d="M 101.722149 63.363606 
L 12.127779 50.344782 
" style="fill:none;stroke:#000000;stroke-linecap:square;stroke-width:0.5;"/>
   </g>
   <g id="line2d_6">
    <path clip-path="url(#p5c9e44b5ed)" d="M 12.127779 50.344782 
L 34.842838 28.203072 
" style="fill:none;stroke:#000000;stroke-linecap:square;stroke-width:0.5;"/>
   </g>
   <g id="line2d_7">
    <path clip-path="url(#p5c9e44b5ed)" d="M 29.130663 102.674279 
L 88.949337 102.674279 
L 107.434324 45.783339 
L 59.04 10.622804 
L 10.645676 45.783339 
L 29.130663 102.674279 
" style="fill:none;stroke:#000000;stroke-linecap:square;"/>
   </g>
   <g id="line2d_8">
    <path clip-path="url(#p5c9e44b5ed)" d="M 28.233383 103.909279 
L 89.846617 103.909279 
L 108.886154 45.311611 
L 59.04 9.09626 
L 9.193846 45.311611 
L 28.233383 103.909279 
" style="fill:none;stroke:#ff0000;stroke-linecap:square;stroke-width:0.1;"/>
   </g>
   <g id="matplotlib.axis_1"/>
   <g id="matplotlib.axis_2"/>
  </g>
 </g>
 <defs>
  <clipPath id="p5c9e44b5ed">
   <rect height="98.6055396095" width="103.68" x="7.2" y="7.2"/>
  </clipPath>
 </defs>
</svg>
