<?xml version="1.0" encoding="utf-8" standalone="no"?>
<!DOCTYPE svg PUBLIC "-//W3C//DTD SVG 1.1//EN"
  "http://www.w3.org/Graphics/SVG/1.1/DTD/svg11.dtd">
<!-- Created with matplotlib (http://matplotlib.org/) -->
<svg height="332pt" version="1.1" viewBox="0 0 348 332" width="348pt" xmlns="http://www.w3.org/2000/svg" xmlns:xlink="http://www.w3.org/1999/xlink">
 <defs>
  <style type="text/css">
*{stroke-linecap:butt;stroke-linejoin:round;stroke-miterlimit:100000;}
  </style>
 </defs>
 <g id="figure_1">
  <g id="patch_1">
   <path d="M 0 332.128961 
L 348.48 332.128961 
L 348.48 0 
L 0 0 
L 0 332.128961 
z
" style="fill:none;"/>
  </g>
  <g id="axes_1">
   <g id="patch_2">
    <path d="M 7.2 324.928961 
L 341.28 324.928961 
L 341.28 7.2 
L 7.2 7.2 
L 7.2 324.928961 
z
" style="fill:none;"/>
   </g>
   <g id="line2d_1">
    <path clip-path="url(#p6716135868)" d="M 252.208633 74.876565 
L 57.28705 103.200329 
" style="fill:none;stroke:#000000;stroke-linecap:square;"/>
   </g>
   <g id="line2d_2">
    <path clip-path="url(#p6716135868)" d="M 57.28705 103.200329 
L 28.229856 162.076634 
" style="fill:none;stroke:#000000;stroke-linecap:square;"/>
   </g>
   <g id="line2d_3">
    <path clip-path="url(#p6716135868)" d="M 28.229856 162.076634 
L 277.644958 293.201913 
" style="fill:none;stroke:#000000;stroke-linecap:square;"/>
   </g>
   <g id="line2d_4">
    <path clip-path="url(#p6716135868)" d="M 277.644958 293.201913 
L 60.586953 261.661539 
" style="fill:none;stroke:#000000;stroke-linecap:square;"/>
   </g>
   <g id="line2d_5">
    <path clip-path="url(#p6716135868)" d="M 60.586953 261.661539 
L 252.208633 74.876565 
" style="fill:none;stroke:#000000;stroke-linecap:square;"/>
   </g>
   <g id="line2d_6">
    <path clip-path="url(#p6716135868)" d="M 252.208633 74.876565 
L 133.779922 314.839344 
" style="fill:none;stroke:#000000;stroke-linecap:square;"/>
   </g>
   <g id="line2d_7">
    <path clip-path="url(#p6716135868)" d="M 133.779922 314.839344 
L 36.708631 118.151425 
" style="fill:none;stroke:#000000;stroke-linecap:square;"/>
   </g>
   <g id="line2d_8">
    <path clip-path="url(#p6716135868)" d="M 36.708631 118.151425 
L 238.489687 314.839344 
" style="fill:none;stroke:#000000;stroke-linecap:square;"/>
   </g>
   <g id="line2d_9">
    <path clip-path="url(#p6716135868)" d="M 238.489687 314.839344 
L 285.505215 269.010531 
" style="fill:none;stroke:#000000;stroke-linecap:square;"/>
   </g>
   <g id="line2d_10">
    <path clip-path="url(#p6716135868)" d="M 285.505215 269.010531 
L 252.208633 74.876565 
" style="fill:none;stroke:#000000;stroke-linecap:square;"/>
   </g>
   <g id="line2d_11">
    <path clip-path="url(#p6716135868)" d="M 77.865469 314.839344 
L 270.614531 314.839344 
L 330.177267 131.524093 
L 174.24 18.229037 
L 18.302733 131.524093 
L 77.865469 314.839344 
" style="fill:none;stroke:#000000;stroke-linecap:square;stroke-width:2.0;"/>
   </g>
   <g id="line2d_12">
    <path clip-path="url(#p6716135868)" d="M 74.974233 318.818789 
L 273.505767 318.818789 
L 334.855385 130.00408 
L 174.24 13.310172 
L 13.624615 130.00408 
L 74.974233 318.818789 
" style="fill:none;stroke:#ff0000;stroke-linecap:square;stroke-width:0.1;"/>
   </g>
   <g id="matplotlib.axis_1"/>
   <g id="matplotlib.axis_2"/>
  </g>
 </g>
 <defs>
  <clipPath id="p6716135868">
   <rect height="317.728960964" width="334.08" x="7.2" y="7.2"/>
  </clipPath>
 </defs>
</svg>
