<?xml version="1.0" encoding="utf-8" standalone="no"?>
<!DOCTYPE svg PUBLIC "-//W3C//DTD SVG 1.1//EN"
  "http://www.w3.org/Graphics/SVG/1.1/DTD/svg11.dtd">
<!-- Created with matplotlib (http://matplotlib.org/) -->
<svg height="249pt" version="1.1" viewBox="0 0 262 249" width="262pt" xmlns="http://www.w3.org/2000/svg" xmlns:xlink="http://www.w3.org/1999/xlink">
 <defs>
  <style type="text/css">
*{stroke-linecap:butt;stroke-linejoin:round;stroke-miterlimit:100000;}
  </style>
 </defs>
 <g id="figure_1">
  <g id="patch_1">
   <path d="M 0 249.957678 
L 262.08 249.957678 
L 262.08 0 
L 0 0 
L 0 249.957678 
z
" style="fill:none;"/>
  </g>
  <g id="axes_1">
   <g id="patch_2">
    <path d="M 7.2 242.757678 
L 254.88 242.757678 
L 254.88 7.2 
L 7.2 7.2 
L 7.2 242.757678 
z
" style="fill:none;"/>
   </g>
   <g id="line2d_1">
    <path clip-path="url(#p70f7959720)" d="M 224.569373 167.324377 
L 45.944165 193.280139 
" style="fill:none;stroke:#000000;stroke-linecap:square;stroke-width:0.5;"/>
   </g>
   <g id="line2d_2">
    <path clip-path="url(#p70f7959720)" d="M 45.944165 193.280139 
L 237.379308 92.636729 
" style="fill:none;stroke:#000000;stroke-linecap:square;stroke-width:0.5;"/>
   </g>
   <g id="line2d_3">
    <path clip-path="url(#p70f7959720)" d="M 237.379308 92.636729 
L 224.569373 167.324377 
" style="fill:none;stroke:#000000;stroke-linecap:square;stroke-width:0.5;"/>
   </g>
   <g id="line2d_4">
    <path clip-path="url(#p70f7959720)" d="M 224.569373 167.324377 
L 191.03253 235.277445 
" style="fill:none;stroke:#000000;stroke-linecap:square;stroke-width:0.5;"/>
   </g>
   <g id="line2d_5">
    <path clip-path="url(#p70f7959720)" d="M 191.03253 235.277445 
L 95.314958 41.332462 
" style="fill:none;stroke:#000000;stroke-linecap:square;stroke-width:0.5;"/>
   </g>
   <g id="line2d_6">
    <path clip-path="url(#p70f7959720)" d="M 95.314958 41.332462 
L 224.569373 167.324377 
" style="fill:none;stroke:#000000;stroke-linecap:square;stroke-width:0.5;"/>
   </g>
   <g id="line2d_7">
    <path clip-path="url(#p70f7959720)" d="M 59.589917 235.277445 
L 202.490083 235.277445 
L 246.648663 99.37131 
L 131.04 15.3767 
L 15.431337 99.37131 
L 59.589917 235.277445 
" style="fill:none;stroke:#000000;stroke-linecap:square;"/>
   </g>
   <g id="line2d_8">
    <path clip-path="url(#p70f7959720)" d="M 57.446414 238.227723 
L 204.633586 238.227723 
L 250.116923 98.244404 
L 131.04 11.729955 
L 11.963077 98.244404 
L 57.446414 238.227723 
" style="fill:none;stroke:#ff0000;stroke-linecap:square;stroke-width:0.1;"/>
   </g>
   <g id="matplotlib.axis_1"/>
   <g id="matplotlib.axis_2"/>
  </g>
 </g>
 <defs>
  <clipPath id="p70f7959720">
   <rect height="235.557677956" width="247.68" x="7.2" y="7.2"/>
  </clipPath>
 </defs>
</svg>
